<svg
  width="24"
  height="24"
  viewBox="0 0 24 24"
  fill="none"
  xmlns="http://www.w3.org/2000/svg"
>
  <path
    d="M4 5H5H20"
    stroke="red"
    stroke-width="1.5"
    stroke-linecap="round"
    stroke-linejoin="round"
  />
  <path
    d="M8 5V3C8 2.46957 8.26339 1.96086 8.72748 1.78033C9.19158 1.59981 9.70776 1.79062 9.88891 2.25481L10.439 3.74999M14 5V3C14 2.46957 14.2634 1.96086 14.7275 1.78033C15.1916 1.59981 15.7078 1.79062 15.8889 2.25481L16.439 3.74999"
    stroke="red"
    stroke-width="1.5"
    stroke-linecap="round"
    stroke-linejoin="round"
  />
  <path
    d="M8 5H14"
    stroke="red"
    stroke-width="1.5"
    stroke-linecap="round"
    stroke-linejoin="round"
  />
  <path
    d="M6 5H7"
    stroke="red"
    stroke-width="1.5"
    stroke-linecap="round"
    stroke-linejoin="round"
  />
  <path
    d="M18 19H6C5.44772 19 5 18.5523 5 18V8H19V18C19 18.5523 18.5523 19 18 19Z"
    stroke="red"
    stroke-width="1.5"
    stroke-linecap="round"
    stroke-linejoin="round"
    fill="none"
  />
</svg>
